<svg xmlns="http://www.w3.org/2000/svg" xml:space="preserve" x="0px" y="0px" style="enable-background:new 0 0 565.7063599 452.744873" viewBox="0 0 565.7063599 452.744873"><path d="M0 0h565.706v452.745H0z" style="fill:#fff"/><path d="M1.768 366.915H550.08" style="fill:none;stroke:#231815;stroke-width:1.7;stroke-miterlimit:10"/><path d="m547.028 366.915-3.725-6.125.209-.139 9.988 3.967 10.439 2.297c-3.48.765-6.96 1.53-10.44 2.297l-9.987 3.967-.21-.105 3.726-6.159z" style="fill:#231815"/><path d="M282.853 452.745V13.859" style="fill:none;stroke:#231815;stroke-width:1.7;stroke-miterlimit:10"/><path d="m282.853 16.91-6.125 3.726-.139-.21 3.967-9.987L282.853 0c.765 3.48 1.53 6.96 2.297 10.44l3.967 9.987-.105.209-6.159-3.726z" style="fill:#231815"/><path d="M65.123 366.915v-2.5" style="fill:none;stroke:#231815;stroke-width:1.25;stroke-miterlimit:10"/><path d="M65.123 361.624V153.081" style="fill:none;stroke:#231815;stroke-width:1.25;stroke-miterlimit:10;stroke-dasharray:4.9842944,2.7912049"/><path d="M65.123 151.685v-2.5h2.5" style="fill:none;stroke:#231815;stroke-width:1.25;stroke-miterlimit:10"/><path d="M70.415 149.185h208.543" style="fill:none;stroke:#231815;stroke-width:1.25;stroke-miterlimit:10;stroke-dasharray:4.9842944,2.7912049"/><path d="M280.353 149.185h2.5M500.583 366.915v-2.5" style="fill:none;stroke:#231815;stroke-width:1.25;stroke-miterlimit:10"/><path d="M500.583 361.624V153.081" style="fill:none;stroke:#231815;stroke-width:1.25;stroke-miterlimit:10;stroke-dasharray:4.9842944,2.7912049"/><path d="M500.583 151.685v-2.5h-2.5" style="fill:none;stroke:#231815;stroke-width:1.25;stroke-miterlimit:10"/><path d="M495.292 149.185H286.749" style="fill:none;stroke:#231815;stroke-width:1.25;stroke-miterlimit:10;stroke-dasharray:4.9842944,2.7912049"/><path d="M285.353 149.185h-2.5" style="fill:none;stroke:#231815;stroke-width:1.25;stroke-miterlimit:10"/><path d="M282.853 366.915 1.768 85.83M282.853 366.915 563.94 85.83" style="fill:none;stroke:#231815;stroke-width:5;stroke-miterlimit:10"/><path d="M269.077 16.873a33.201 33.201 0 0 1-1.785 4.101c-.709 1.374-1.346 2.43-1.913 3.167-.793.963-1.8 1.764-3.017 2.401-1.219.637-2.366.956-3.442.956a8.178 8.178 0 0 1-4.017-1.02c-1.232-.68-1.849-1.53-1.849-2.55 0-.538.177-.999.532-1.38a1.698 1.698 0 0 1 1.296-.575c.566 0 1.026.149 1.381.447.354.297.532.7.532 1.21l-.128 1.319c0 .51.205.834.616.977.41.141 1.013.212 1.806.212.623 0 1.332-.276 2.125-.829a7.743 7.743 0 0 0 1.998-2.018c.425-.624.914-1.516 1.466-2.677a28.631 28.631 0 0 0 1.381-3.443c-1.02.935-2.047 1.643-3.08 2.125-1.036.481-1.963.722-2.785.722-1.218 0-2.167-.354-2.847-1.062-.68-.708-1.02-1.658-1.02-2.848 0-1.275.708-3.442 2.125-6.502 1.416-3.06 2.125-5.114 2.125-6.163 0-.368-.043-.665-.128-.892-.085-.226-.198-.34-.34-.34-.283 0-.623.127-1.02.383-.397.254-.78.58-1.147.977-.284.283-.595.673-.935 1.169-.34.496-.624.942-.85 1.338a.356.356 0 0 1-.17.149.497.497 0 0 1-.212.064c-.2 0-.39-.092-.574-.277-.185-.183-.22-.375-.107-.573.312-.567.702-1.183 1.17-1.849.467-.665.927-1.225 1.38-1.679a7.943 7.943 0 0 1 1.764-1.338c.638-.354 1.183-.532 1.637-.532.85 0 1.487.27 1.912.808.425.538.637 1.275.637 2.21 0 1.417-.758 3.868-2.274 7.352s-2.273 5.512-2.273 6.078c0 .482.177.892.531 1.232.354.34.8.51 1.34.51.452 0 1.004-.14 1.656-.425a9.108 9.108 0 0 0 1.785-1.02c.482-.368.992-.828 1.53-1.381.538-.552.963-1.055 1.275-1.509L271.627.681h3.188l-5.738 16.192zM563.429 387.293c-.34.525-.88.786-1.615.786-.51 0-.943-.163-1.296-.489-.355-.325-.532-.757-.532-1.296 0-.623.149-1.097.447-1.424.298-.325.446-.616.446-.87a.467.467 0 0 0-.17-.362c-.114-.099-.354-.148-.723-.148-.85 0-1.792.567-2.826 1.7-1.035 1.133-1.906 2.55-2.614 4.25a30.065 30.065 0 0 0-1.55 4.823c-.412 1.742-.617 3.18-.617 4.313 0 1.19.191 2.083.573 2.678.383.595 1.098.893 2.147.893.99 0 1.962-.461 2.91-1.381.95-.921 1.665-2.062 2.147-3.422a.497.497 0 0 1 .17-.17.523.523 0 0 1 .298-.085c.197 0 .389.078.573.235.185.155.248.318.192.488-.227.709-.595 1.466-1.105 2.273-.51.808-1.007 1.467-1.488 1.977a7.964 7.964 0 0 1-2.23 1.552c-.866.41-1.666.616-2.402.616-1.389 0-2.451-.461-3.187-1.382-.738-.92-1.106-2.132-1.106-3.634a22.65 22.65 0 0 1-1.02 1.445c-.369.482-.665.835-.892 1.063a9.6 9.6 0 0 1-2.508 1.785c-.964.482-1.827.723-2.593.723-1.132 0-2.125-.362-2.974-1.084s-1.276-1.609-1.276-2.656c0-.766.22-1.431.66-1.998.438-.567 1.054-.85 1.848-.85.482 0 .893.17 1.233.51s.51.765.51 1.275c0 .68-.234 1.169-.702 1.466-.467.298-.7.66-.7 1.084 0 .198.112.361.339.488.227.128.61.192 1.147.192.908 0 1.92-.56 3.04-1.68s2.046-2.513 2.784-4.185c.651-1.473 1.196-3.102 1.635-4.887s.66-3.288.66-4.505a7.87 7.87 0 0 0-.15-1.552c-.1-.495-.22-.856-.361-1.084-.198-.312-.503-.559-.913-.743a3.23 3.23 0 0 0-1.34-.277c-.367 0-.778.092-1.232.277-.454.184-.85.431-1.19.743-.198.2-.467.482-.808.85-.34.369-.666.752-.977 1.148-.028.057-.092.106-.19.148a.699.699 0 0 1-.277.064.747.747 0 0 1-.574-.255c-.156-.17-.177-.353-.064-.552a11.11 11.11 0 0 1 1.19-1.721c.481-.58.92-1.027 1.318-1.34.482-.396 1.083-.714 1.806-.955.723-.24 1.367-.362 1.933-.362 1.36 0 2.395.453 3.103 1.36s1.062 2.126 1.062 3.655c.454-.651.978-1.317 1.574-1.997.594-.68 1.118-1.19 1.572-1.53.538-.397 1.183-.729 1.934-1 .75-.268 1.409-.403 1.976-.403 1.076 0 1.926.34 2.55 1.02.623.68.935 1.503.935 2.466 0 .764-.17 1.409-.51 1.933zM423.082 81.104a33.206 33.206 0 0 1-1.785 4.1c-.709 1.375-1.347 2.43-1.913 3.167-.793.963-1.799 1.764-3.018 2.402-1.217.637-2.365.956-3.442.956-1.444 0-2.783-.34-4.016-1.02s-1.848-1.53-1.848-2.55c0-.539.175-.999.53-1.381a1.697 1.697 0 0 1 1.297-.574c.566 0 1.026.148 1.38.446.355.298.532.701.532 1.211l-.127 1.318c0 .51.205.835.616.978.41.14 1.013.212 1.806.212.623 0 1.332-.276 2.125-.83a7.753 7.753 0 0 0 1.998-2.018c.425-.623.914-1.516 1.466-2.677a28.722 28.722 0 0 0 1.382-3.443c-1.021.935-2.048 1.644-3.082 2.125-1.035.482-1.962.723-2.784.723-1.218 0-2.168-.355-2.847-1.063s-1.02-1.657-1.02-2.847c0-1.275.708-3.443 2.125-6.503 1.416-3.06 2.125-5.114 2.125-6.162 0-.368-.043-.665-.128-.892-.085-.227-.198-.34-.34-.34-.283 0-.624.127-1.02.382-.397.255-.78.581-1.148.977-.283.284-.594.674-.934 1.169-.34.496-.624.942-.85 1.339a.36.36 0 0 1-.17.148.493.493 0 0 1-.213.064c-.198 0-.39-.092-.574-.276-.184-.184-.22-.375-.105-.574.31-.566.7-1.182 1.168-1.848.467-.666.927-1.226 1.382-1.68a7.954 7.954 0 0 1 1.763-1.338c.638-.354 1.183-.531 1.636-.531.85 0 1.488.27 1.913.807.425.539.638 1.275.638 2.21 0 1.417-.76 3.868-2.275 7.353s-2.273 5.511-2.273 6.077c0 .482.177.893.531 1.233.354.34.8.51 1.339.51.453 0 1.005-.141 1.657-.425a9.122 9.122 0 0 0 1.785-1.02c.482-.368.992-.829 1.53-1.382.538-.552.964-1.055 1.275-1.508l4.463-13.218h3.187l-5.737 16.193zM431.412 67.461v-2.04h31.875v2.04h-31.875zm0 8.075v-2.04h31.875v2.04h-31.875zM489.403 55.54c-.27.383-.7.574-1.296.574-.765 0-1.304-.156-1.616-.468-.311-.311-.61-.467-.891-.467-.426 0-.914.262-1.467.786-.553.525-1.027 1.197-1.424 2.019-.311.652-.694 1.6-1.147 2.847a64.305 64.305 0 0 0-1.233 3.74h5.44l-.425 1.7h-5.483l-1.572 6.205a74.164 74.164 0 0 1-2.932 9.01c-1.163 2.918-2.225 5.03-3.188 6.333a9.738 9.738 0 0 1-2.72 2.486c-1.076.666-2.068.999-2.974.999-.623 0-1.134-.17-1.53-.51s-.595-.808-.595-1.403c0-.538.176-.984.531-1.338.354-.355.856-.532 1.509-.532.481 0 .878.092 1.19.277.312.184.652.276 1.02.276 1.529 0 2.747-1.779 3.654-5.334a1723.86 1723.86 0 0 0 2.678-10.646l2.04-5.823h-4.548l.426-1.7h4.76a64.114 64.114 0 0 1 2.21-5.015c.82-1.67 1.515-2.904 2.081-3.697a9.761 9.761 0 0 1 2.721-2.614c1.076-.694 2.04-1.041 2.89-1.041.651 0 1.196.17 1.636.51.439.34.659.765.659 1.275 0 .652-.135 1.169-.404 1.55zM497.903 91.495c-.297.156-.517.149-.659-.021-.934-1.304-1.885-2.869-2.847-4.696s-1.686-3.464-2.167-4.91c-.54-1.585-.993-3.463-1.36-5.63s-.554-4.073-.554-5.717c0-1.643.17-3.527.511-5.652.34-2.125.779-3.967 1.318-5.525.481-1.445 1.196-3.074 2.145-4.888.95-1.813 1.877-3.371 2.784-4.674.114-.17.34-.185.68-.043.34.142.453.312.34.51-1.614 2.833-2.89 6.007-3.824 9.52a41.777 41.777 0 0 0-1.404 10.795c0 1.587.15 3.457.447 5.61.297 2.153.672 4.037 1.127 5.652.396 1.417.956 3.003 1.678 4.76.723 1.757 1.41 3.216 2.06 4.378.114.198.022.375-.275.53zM525.932 69.608c-.34.524-.88.786-1.616.786-.51 0-.942-.163-1.295-.489-.355-.325-.532-.758-.532-1.296 0-.623.149-1.098.447-1.424.297-.325.446-.616.446-.871a.467.467 0 0 0-.17-.362c-.114-.098-.355-.148-.723-.148-.85 0-1.792.567-2.826 1.7-1.035 1.133-1.906 2.55-2.614 4.25a30.07 30.07 0 0 0-1.55 4.823c-.412 1.743-.617 3.182-.617 4.314 0 1.19.191 2.083.573 2.678.383.595 1.098.892 2.147.892.99 0 1.962-.46 2.91-1.381s1.665-2.061 2.147-3.421a.485.485 0 0 1 .17-.17.527.527 0 0 1 .298-.085c.197 0 .389.078.573.233.185.157.248.32.192.49-.227.708-.595 1.466-1.105 2.273-.51.807-1.007 1.467-1.488 1.976a7.963 7.963 0 0 1-2.23 1.552c-.866.41-1.666.616-2.402.616-1.389 0-2.451-.461-3.187-1.382-.738-.92-1.106-2.13-1.106-3.633a22.65 22.65 0 0 1-1.02 1.445c-.369.481-.665.835-.892 1.062a9.588 9.588 0 0 1-2.508 1.785c-.964.482-1.827.723-2.593.723-1.132 0-2.125-.362-2.974-1.084-.85-.722-1.276-1.608-1.276-2.656 0-.765.22-1.43.66-1.998.438-.566 1.054-.85 1.848-.85.482 0 .893.17 1.233.51.34.34.51.765.51 1.276 0 .68-.234 1.168-.702 1.465-.467.298-.7.66-.7 1.084 0 .198.112.362.339.49s.61.19 1.147.19c.908 0 1.92-.56 3.04-1.678 1.119-1.12 2.046-2.514 2.784-4.187.651-1.472 1.196-3.102 1.635-4.887.44-1.785.66-3.287.66-4.505 0-.538-.05-1.056-.15-1.552-.1-.495-.22-.856-.361-1.083-.198-.312-.503-.56-.913-.744a3.238 3.238 0 0 0-1.34-.276c-.367 0-.778.092-1.232.276-.454.185-.85.432-1.19.744-.198.198-.467.482-.808.85-.34.368-.666.751-.977 1.147-.028.058-.092.106-.19.149a.709.709 0 0 1-.277.064.747.747 0 0 1-.574-.255c-.156-.17-.177-.354-.064-.553.312-.566.708-1.14 1.19-1.72.481-.582.92-1.028 1.318-1.34.482-.396 1.083-.715 1.806-.956.722-.24 1.367-.361 1.933-.361 1.36 0 2.395.453 3.103 1.36.708.907 1.062 2.125 1.062 3.655.454-.651.978-1.318 1.574-1.998.594-.68 1.118-1.19 1.572-1.53.538-.396 1.183-.729 1.934-.998.75-.27 1.409-.404 1.976-.404 1.076 0 1.926.34 2.55 1.02.623.68.934 1.502.934 2.465 0 .765-.17 1.41-.51 1.934zM536.195 81.635a38.352 38.352 0 0 1-5.079 9.839c-.141.17-.361.184-.658.042-.298-.142-.39-.326-.276-.552.651-1.134 1.33-2.572 2.04-4.314.707-1.742 1.26-3.35 1.657-4.824.481-1.67.871-3.576 1.169-5.716.297-2.139.446-3.988.446-5.546 0-3.797-.454-7.395-1.36-10.795-.907-3.4-2.196-6.573-3.867-9.52-.058-.085-.022-.205.105-.362.128-.155.333-.233.617-.233a.71.71 0 0 1 .17.021c.056.015.099.05.127.107 2.097 2.918 3.747 6.162 4.951 9.732a34.216 34.216 0 0 1 1.807 11.007c0 3.854-.616 7.559-1.849 11.114zM275.75 397.22c-.78 2.238-1.75 4.095-2.912 5.567-1.247 1.559-2.904 2.854-4.972 3.89-2.069 1.033-4.024 1.55-5.865 1.55-1.927 0-3.939-.503-6.035-1.509-2.097-1.006-3.755-2.245-4.973-3.719-1.134-1.416-2.075-3.264-2.826-5.546-.75-2.28-1.126-4.426-1.126-6.438 0-1.927.368-4.009 1.105-6.248.736-2.237 1.671-4.066 2.805-5.483 1.246-1.585 2.918-2.896 5.015-3.93 2.096-1.034 4.094-1.552 5.992-1.552 1.927 0 3.945.518 6.056 1.552s3.776 2.345 4.994 3.93c1.133 1.417 2.068 3.246 2.805 5.483.737 2.24 1.105 4.321 1.105 6.248 0 1.898-.39 3.967-1.168 6.205zm-3.91-9.584c-.128-1.232-.292-2.259-.49-3.081a19.6 19.6 0 0 0-1.253-3.485c-.552-1.19-1.113-2.097-1.679-2.72-.708-.821-1.679-1.494-2.911-2.019s-2.416-.787-3.549-.787-2.302.263-3.506.787c-1.205.525-2.16 1.183-2.869 1.976-.567.624-1.126 1.53-1.679 2.72a19.564 19.564 0 0 0-1.254 3.485c-.198.879-.368 1.934-.51 3.166a29.382 29.382 0 0 0-.212 3.337c0 1.728.17 3.542.51 5.44.34 1.898.78 3.414 1.318 4.547.736 1.559 1.891 2.863 3.463 3.91 1.573 1.048 3.167 1.573 4.782 1.573 1.558 0 3.102-.532 4.632-1.594 1.53-1.063 2.663-2.387 3.4-3.974.567-1.217 1.041-2.762 1.424-4.633.382-1.87.574-3.625.574-5.269 0-1.02-.064-2.147-.192-3.379zM493.188 406.74c-.115 0-.206-.064-.277-.192a.993.993 0 0 1-.106-.488c0-.228.035-.404.106-.531.07-.128.162-.192.277-.192h1.02c2.01 0 3.335-.206 3.973-.616s.956-1.056.956-1.934v-21.504c0-.766-.234-1.332-.701-1.7-.467-.369-1.126-.553-1.976-.553h-3.358c-.114 0-.212-.07-.297-.213a.968.968 0 0 1-.128-.51c0-.197.043-.354.128-.467s.183-.17.297-.17c1.417-.141 2.897-.447 4.441-.914a30.993 30.993 0 0 0 4.441-1.722c.199-.112.362-.133.49-.063.127.071.19.22.19.446v27.37c0 .482.185.95.553 1.403s.821.75 1.36.892c.312.085.822.156 1.53.212.708.057 1.46.085 2.252.085.114 0 .199.078.255.235.057.155.085.318.085.488 0 .198-.028.354-.085.468s-.141.17-.255.17h-15.171zM57.728 406.74c-.114 0-.206-.064-.276-.192a.999.999 0 0 1-.106-.488c0-.228.035-.404.106-.531.07-.128.162-.192.276-.192h1.02c2.011 0 3.337-.206 3.974-.616.637-.41.956-1.056.956-1.934v-21.504c0-.766-.234-1.332-.701-1.7-.468-.369-1.126-.553-1.976-.553h-3.358c-.114 0-.212-.07-.297-.213a.968.968 0 0 1-.128-.51c0-.197.043-.354.128-.467s.183-.17.297-.17c1.417-.141 2.897-.447 4.442-.914a30.987 30.987 0 0 0 4.44-1.722c.199-.112.362-.133.49-.063.127.071.19.22.19.446v27.37c0 .482.185.95.553 1.403s.822.75 1.36.892c.312.085.822.156 1.53.212a28.3 28.3 0 0 0 2.252.085c.114 0 .199.078.256.235.056.155.085.318.085.488 0 .198-.029.354-.085.468-.057.113-.142.17-.256.17H57.728zM292.365 140.562c-.114 0-.206-.064-.276-.191a.997.997 0 0 1-.106-.489c0-.227.035-.404.106-.531.07-.128.162-.192.276-.192h1.02c2.012 0 3.336-.206 3.973-.616.638-.41.957-1.055.957-1.933v-21.506c0-.764-.234-1.331-.702-1.7-.466-.368-1.126-.552-1.975-.552h-3.359c-.113 0-.212-.07-.296-.213a.974.974 0 0 1-.128-.51c0-.198.043-.353.128-.467.084-.113.183-.17.296-.17 1.417-.142 2.898-.446 4.442-.914a31.051 31.051 0 0 0 4.441-1.721c.198-.113.362-.134.49-.064.126.071.19.22.19.447v27.37c0 .482.184.949.553 1.402.368.453.82.75 1.36.893.311.085.821.155 1.53.212a28.51 28.51 0 0 0 2.252.085c.113 0 .198.078.255.234.057.155.085.318.085.489 0 .197-.028.354-.085.467-.057.113-.142.17-.255.17h-15.172z"/></svg>